<?xml version="1.0" encoding="UTF-8"?>
<svg id="Calque_2" data-name="Calque 2" xmlns="http://www.w3.org/2000/svg" xmlns:xlink="http://www.w3.org/1999/xlink" viewBox="0 0 2160 2160">
  <defs>
    <style>
      .cls-1 {
        clip-path: url(#clippath);
      }

      .cls-2 {
        fill: none;
      }

      .cls-2, .cls-3, .cls-4, .cls-5, .cls-6, .cls-7 {
        stroke-width: 0px;
      }

      .cls-8 {
        clip-path: url(#clippath-1);
      }

      .cls-9 {
        clip-path: url(#clippath-4);
      }

      .cls-10 {
        clip-path: url(#clippath-3);
      }

      .cls-11 {
        clip-path: url(#clippath-2);
      }

      .cls-3 {
        fill: #73eab1;
      }

      .cls-4 {
        fill: #eda4ff;
      }

      .cls-5 {
        fill: #ff3400;
      }

      .cls-6 {
        fill: #ffa6fa;
      }

      .cls-7 {
        fill: #00534b;
      }
    </style>
    <clipPath id="clippath">
      <rect class="cls-2" x="125.2" y="120.2" width="823.6" height="823.6"/>
    </clipPath>
    <clipPath id="clippath-1">
      <rect class="cls-2" x="1256.84" y="130.33" width="770.33" height="805.34"/>
    </clipPath>
    <clipPath id="clippath-2">
      <rect class="cls-2" x="1256.84" y="130.33" width="770.33" height="805.34"/>
    </clipPath>
    <clipPath id="clippath-3">
      <rect class="cls-2" x="161.51" y="1226.6" width="746.98" height="778.79"/>
    </clipPath>
    <clipPath id="clippath-4">
      <rect class="cls-2" x="161.51" y="1226.6" width="746.98" height="778.79"/>
    </clipPath>
  </defs>
  <g id="texte">
    <rect class="cls-7" x="1080" y="1080" width="1080" height="1080"/>
    <rect class="cls-5" x="1080" width="1080" height="1080"/>
    <rect class="cls-3" width="1080" height="1080"/>
    <g id="Illustration_21" data-name="Illustration 21">
      <g class="cls-1">
        <rect class="cls-7" x="465.98" y="614.36" width="142.05" height="329.44"/>
        <rect class="cls-7" x="197.57" y="635.69" width="329.44" height="142.05" transform="translate(-393.61 463.17) rotate(-45)"/>
        <rect class="cls-7" x="125.2" y="460.98" width="329.44" height="142.05"/>
        <rect class="cls-7" x="291.26" y="192.57" width="142.05" height="329.44" transform="translate(-146.53 360.82) rotate(-45)"/>
        <rect class="cls-7" x="465.97" y="120.2" width="142.05" height="329.44"/>
        <rect class="cls-7" x="546.99" y="286.26" width="329.44" height="142.05" transform="translate(-44.18 607.9) rotate(-45)"/>
        <rect class="cls-7" x="619.36" y="460.98" width="329.44" height="142.05"/>
        <rect class="cls-7" x="640.69" y="541.99" width="142.05" height="329.44" transform="translate(-291.27 710.25) rotate(-45)"/>
      </g>
    </g>
    <g id="Illustration_3" data-name="Illustration 3">
      <g class="cls-8">
        <g class="cls-11">
          <path class="cls-4" d="M1730.37,695.57c0,130.76-106,236.77-236.77,236.77s-236.77-106-236.77-236.77,106-236.77,236.77-236.77,236.77,106,236.77,236.77"/>
          <path class="cls-4" d="M1645.33,182.02c0,28.55-23.14,51.69-51.69,51.69s-51.69-23.14-51.69-51.69,23.14-51.69,51.69-51.69,51.69,23.14,51.69,51.69"/>
          <path class="cls-4" d="M2013.82,360.43c0,120.63-97.79,218.43-218.43,218.43s-218.43-97.79-218.43-218.43,97.79-218.43,218.43-218.43,218.43,97.79,218.43,218.43"/>
          <path class="cls-4" d="M1581.97,304.57c0,89.78-72.78,162.57-162.57,162.57s-162.57-72.78-162.57-162.57,72.78-162.57,162.57-162.57,162.57,72.78,162.57,162.57"/>
          <path class="cls-4" d="M1798.73,872.31c0,34.99-28.37,63.36-63.36,63.36s-63.36-28.37-63.36-63.36,28.37-63.36,63.36-63.36,63.36,28.37,63.36,63.36"/>
          <path class="cls-4" d="M2027.16,717.24c0,81.96-66.44,148.4-148.4,148.4s-148.4-66.44-148.4-148.4,66.44-148.4,148.4-148.4,148.4,66.44,148.4,148.4"/>
        </g>
      </g>
    </g>
    <rect class="cls-6" y="1080" width="1080" height="1080"/>
    <g id="Illustration_29" data-name="Illustration 29">
      <g class="cls-10">
        <g class="cls-9">
          <path class="cls-5" d="M183.12,1684.32l138.68-457.72,152.4,464.39s104.66,314.41-145.4,314.41-145.68-321.07-145.68-321.07"/>
          <path class="cls-5" d="M595.69,1684.32l138.68-457.72,152.4,464.39s104.66,314.41-145.4,314.41-145.68-321.07-145.68-321.07"/>
        </g>
      </g>
    </g>
    <g>
      <path class="cls-3" d="M1362.99,1599.61v-169.38h98.24c8.26,0,15.75,1.73,22.46,5.18,6.7,3.45,12.05,8.3,16.02,14.55,3.98,6.25,5.96,13.56,5.96,21.94,0,7.4-1.21,13.73-3.63,18.98-2.42,5.26-5.61,9.53-9.59,12.82-3.98,3.29-8.46,5.76-13.45,7.4v.99c5.77,1.32,10.99,3.66,15.67,7.03,4.68,3.37,8.38,7.93,11.11,13.68,2.73,5.76,4.09,12.74,4.09,20.96,0,9.7-2.19,17.96-6.55,24.78-4.37,6.82-10.14,12.04-17.31,15.66-7.17,3.62-15.2,5.42-24.09,5.42h-98.95ZM1404.86,1497.54h41.87c4.99,0,8.97-1.6,11.93-4.81,2.96-3.21,4.44-7.52,4.44-12.94s-1.48-9.37-4.44-12.33c-2.96-2.96-6.71-4.44-11.23-4.44h-42.57v34.52ZM1404.86,1565.59h45.61c4.99,0,9.01-1.56,12.05-4.68,3.04-3.12,4.56-7.89,4.56-14.3,0-5.26-1.52-9.53-4.56-12.82-3.04-3.29-7.29-4.93-12.75-4.93h-44.91v36.74Z"/>
      <path class="cls-3" d="M1590.12,1602.57c-13.72,0-25.46-2.47-35.2-7.4-9.75-4.93-17.23-12.45-22.46-22.56-5.23-10.11-7.84-22.81-7.84-38.09s2.61-27.94,7.84-37.97c5.22-10.02,12.71-17.51,22.46-22.44,9.74-4.93,21.48-7.4,35.2-7.4s25.69,2.46,35.44,7.4c9.74,4.93,17.23,12.41,22.46,22.44,5.22,10.03,7.84,22.68,7.84,37.97s-2.61,27.98-7.84,38.09c-5.23,10.11-12.71,17.63-22.46,22.56-9.75,4.93-21.56,7.4-35.44,7.4ZM1590.12,1573.23c9.67,0,16.57-2.92,20.7-8.75,4.13-5.83,6.2-14.26,6.2-25.27v-9.12c0-11.01-2.07-19.43-6.2-25.27-4.13-5.83-11.03-8.75-20.7-8.75s-16.34,2.92-20.47,8.75c-4.13,5.84-6.2,14.26-6.2,25.27v9.12c0,11.01,2.07,19.44,6.2,25.27,4.13,5.84,10.95,8.75,20.47,8.75Z"/>
      <path class="cls-3" d="M1718.54,1602.57c-7.95,0-14.7-1.28-20.23-3.82-5.54-2.55-9.67-6.37-12.4-11.46-2.73-5.09-4.09-11.26-4.09-18.49v-69.77h-16.14v-29.34h17.31l7.95-37.97h29.01v37.97h24.09v29.34h-24.09v59.91c0,4.6.86,8.14,2.57,10.6,1.71,2.47,4.83,3.7,9.36,3.7h12.16v25.15c-3.27,1.15-7.41,2.13-12.4,2.96-4.99.82-9.36,1.23-13.1,1.23Z"/>
      <path class="cls-3" d="M1795.97,1602.57c-5.15,0-10.18-.54-15.09-1.6-4.91-1.07-9.36-2.96-13.33-5.67-3.98-2.71-7.13-6.45-9.47-11.22-2.34-4.77-3.51-10.76-3.51-18,0-9.37,1.87-17.01,5.61-22.93,3.74-5.92,9.16-10.56,16.26-13.93,7.09-3.37,15.67-5.71,25.73-7.03,10.06-1.31,21.32-1.97,33.8-1.97v-8.14c0-5.42-1.56-9.7-4.68-12.82-3.12-3.12-7.95-4.68-14.5-4.68-4.06,0-7.6.49-10.64,1.48-3.04.99-5.34,2.43-6.9,4.31-1.56,1.89-2.34,4.15-2.34,6.78v2.22h-37.43c-.16-.82-.23-1.52-.23-2.1v-2.34c0-11.67,5.07-20.96,15.2-27.86,10.14-6.9,24.33-10.35,42.57-10.35,11.38,0,21.32,1.48,29.82,4.44,8.5,2.96,15.2,7.48,20.12,13.56,4.91,6.08,7.37,14.05,7.37,23.91v55.47c0,2.8.74,5.02,2.22,6.66,1.48,1.65,3.31,2.47,5.5,2.47h7.95v24.9c-1.72.82-4.41,1.76-8.07,2.83-3.67,1.07-8.07,1.6-13.22,1.6s-9.94-.7-13.92-2.1c-3.98-1.4-7.25-3.37-9.82-5.92-2.57-2.55-4.33-5.55-5.26-9h-1.64c-4.53,4.93-10.18,9-16.96,12.2-6.78,3.2-15.17,4.81-25.15,4.81ZM1810.23,1574.71c3.74,0,7.17-.57,10.29-1.73,3.12-1.15,5.81-2.75,8.07-4.81,2.26-2.05,4.05-4.56,5.38-7.52,1.32-2.96,1.99-6.16,1.99-9.62v-8.63c-8.89,0-16.53.66-22.92,1.97-6.4,1.32-11.31,3.37-14.74,6.16-3.43,2.8-5.15,6.33-5.15,10.6,0,4.93,1.6,8.43,4.8,10.48,3.19,2.06,7.29,3.08,12.28,3.08Z"/>
      <path class="cls-3" d="M1352,1806.81l28.54-169.38h90.29c10.14,0,18.6,1.64,25.38,4.93,6.78,3.29,11.89,7.81,15.32,13.56,3.43,5.76,5.15,12.33,5.15,19.72,0,6.9-1.44,13.31-4.33,19.23-2.89,5.92-6.82,10.93-11.81,15.04-4.99,4.11-10.76,6.9-17.31,8.38l-.23.99c7.02,2.3,12.86,6.37,17.54,12.2,4.68,5.84,7.02,13.52,7.02,23.05,0,11.34-2.54,20.92-7.6,28.72-5.07,7.81-11.85,13.68-20.35,17.63-8.5,3.94-17.82,5.92-27.95,5.92h-99.65ZM1399.95,1772.78h45.14c5.92,0,10.8-1.89,14.62-5.67,3.82-3.78,5.73-8.96,5.73-15.53,0-4.6-1.29-8.3-3.86-11.1-2.57-2.79-6.75-4.19-12.51-4.19h-43.27l-5.85,36.49ZM1411.18,1704.74h41.64c4.68,0,8.46-.9,11.35-2.71,2.88-1.81,5.03-4.27,6.43-7.4,1.4-3.12,2.1-6.41,2.1-9.86,0-4.6-1.25-8.17-3.74-10.72-2.5-2.55-5.93-3.82-10.29-3.82h-41.64l-5.85,34.52Z"/>
      <path class="cls-3" d="M1581,1809.77c-18.4,0-32.67-4.27-42.81-12.82-10.14-8.54-15.2-21.61-15.2-39.2,0-3.29.15-6.61.47-9.99.31-3.37.78-6.7,1.4-9.99,3.59-21.7,11.85-37.76,24.79-48.2,12.94-10.44,29.39-15.66,49.36-15.66,18.71,0,33.14,4.28,43.27,12.82,10.14,8.55,15.2,21.7,15.2,39.45,0,7.73-.82,14.79-2.46,21.2s-4.02,12.25-7.13,17.5c-5.77,15.29-14.15,26.59-25.15,33.9-10.99,7.32-24.91,10.97-41.75,10.97ZM1583.81,1780.43c9.51,0,16.8-2.92,21.87-8.75,5.07-5.83,8.54-14.26,10.41-25.27.78-4.44,1.36-7.93,1.75-10.48.39-2.55.62-4.56.7-6.04.08-1.48.12-2.79.12-3.94,0-7.4-1.75-13.03-5.26-16.89-3.51-3.86-9.16-5.79-16.96-5.79-9.51,0-16.81,2.92-21.87,8.75-5.07,5.84-8.54,14.26-10.41,25.27-.78,4.44-1.37,7.97-1.76,10.6-.39,2.63-.66,4.65-.82,6.04-.16,1.4-.23,2.67-.23,3.82,0,7.56,1.79,13.23,5.38,17.01,3.59,3.78,9.28,5.67,17.08,5.67Z"/>
      <path class="cls-3" d="M1708.48,1809.77c-10.61,0-18.56-2.22-23.86-6.66-5.3-4.44-7.95-10.93-7.95-19.48,0-1.64.15-3.82.47-6.53.31-2.71.78-6.29,1.4-10.73l10.06-60.16h-16.14l4.68-29.34h17.54l14.27-37.97h29.01l-6.32,37.97h24.09l-4.91,29.34h-24.09l-9.36,55.97c-.16,1.48-.35,3.08-.58,4.81-.23,1.73-.35,3.08-.35,4.07,0,2.96.74,5.26,2.22,6.9,1.48,1.65,4.01,2.47,7.6,2.47h12.16l-4.21,25.15c-2.19.66-4.84,1.36-7.95,2.1-3.12.74-6.24,1.27-9.36,1.6-3.12.33-5.93.49-8.42.49Z"/>
      <path class="cls-3" d="M1796.2,1809.77c-13.41,0-24.02-4.15-31.81-12.45-7.8-8.3-11.7-20.34-11.7-36.12,0-3.29.15-6.7.47-10.23.31-3.53.78-7.27,1.4-11.22,3.74-22.35,10.72-38.91,20.94-49.68,10.21-10.76,22.81-16.15,37.78-16.15,7.95,0,14.85,1.48,20.7,4.44,5.85,2.96,10.64,7.73,14.39,14.3h1.64l9.12-15.78h30.88l-5.61,31.8c-.94,5.92-1.95,11.92-3.04,18-1.09,6.08-2.11,11.83-3.04,17.26-.94,5.42-1.79,10.35-2.57,14.79-.78,4.44-1.37,8.06-1.75,10.85-.39,2.8-.58,4.6-.58,5.42,0,2.3.58,3.99,1.75,5.05,1.17,1.07,2.69,1.6,4.56,1.6h7.25l-3.98,23.67c-2.65,1.15-5.77,2.18-9.36,3.08-3.59.9-7.33,1.36-11.23,1.36-4.68,0-8.77-.7-12.28-2.1-3.51-1.4-6.36-3.58-8.54-6.53-1.09-1.31-1.99-2.96-2.69-4.93-.7-1.97-1.21-4.03-1.52-6.16h-1.64c-4.99,6.41-10.92,11.3-17.78,14.67-6.86,3.37-14.11,5.05-21.75,5.05ZM1811.17,1778.21c3.9,0,7.49-.82,10.76-2.46,3.27-1.64,6.16-3.94,8.66-6.9,2.49-2.96,4.6-6.49,6.32-10.6,1.71-4.11,2.96-8.63,3.74-13.56.94-4.76,1.48-8.34,1.64-10.72.15-2.38.23-4.4.23-6.04,0-7.07-1.48-12.57-4.44-16.52-2.96-3.94-7.88-5.92-14.74-5.92-5.77,0-10.61,1.19-14.5,3.57-3.9,2.38-7.02,6-9.36,10.85-2.34,4.85-4.13,10.72-5.38,17.63-.78,4.28-1.37,7.64-1.75,10.11-.39,2.46-.62,4.48-.7,6.04-.08,1.56-.12,2.83-.12,3.82,0,6.74,1.52,11.88,4.56,15.41,3.04,3.54,8.07,5.3,15.09,5.3Z"/>
    </g>
  </g>
</svg>